<svg xmlns="http://www.w3.org/2000/svg" viewBox="0 0 1024 1024">
  <defs>
    <linearGradient id="bg" x1="0" y1="0" x2="1" y2="1">
      <stop offset="0%" stop-color="#f4efe4"/>
      <stop offset="100%" stop-color="#d9ecff"/>
    </linearGradient>
    <linearGradient id="sheet" x1="0" y1="0" x2="0" y2="1">
      <stop offset="0%" stop-color="#fffefb"/>
      <stop offset="100%" stop-color="#f0f3f7"/>
    </linearGradient>
  </defs>
  <rect x="64" y="64" width="896" height="896" rx="216" fill="url(#bg)"/>
  <rect x="208" y="144" width="608" height="736" rx="56" fill="#1b3552" opacity="0.12"/>
  <rect x="184" y="120" width="608" height="736" rx="56" fill="url(#sheet)"/>
  <rect x="184" y="120" width="608" height="128" rx="56" fill="#2a7bd9"/>
  <rect x="184" y="200" width="608" height="48" fill="#2a7bd9"/>
  <circle cx="272" cy="184" r="22" fill="#d9ecff"/>
  <circle cx="352" cy="184" r="22" fill="#d9ecff"/>
  <circle cx="432" cy="184" r="22" fill="#d9ecff"/>
  <rect x="272" y="332" width="432" height="38" rx="19" fill="#8fb4da"/>
  <rect x="272" y="420" width="344" height="38" rx="19" fill="#8fb4da"/>
  <rect x="272" y="508" width="392" height="38" rx="19" fill="#8fb4da"/>
  <rect x="272" y="596" width="300" height="38" rx="19" fill="#8fb4da"/>
  <rect x="632" y="676" width="160" height="160" rx="40" fill="#ffb347"/>
  <path d="M675 758h74" stroke="#ffffff" stroke-width="30" stroke-linecap="round"/>
  <path d="M712 721v74" stroke="#ffffff" stroke-width="30" stroke-linecap="round"/>
</svg>
